<svg width="18" height="17" viewBox="0 0 18 17" fill="none" xmlns="http://www.w3.org/2000/svg">
<path d="M6.19482 13.5033C6.19482 13.5693 6.12875 13.6024 6.02964 13.6024C5.93053 13.6354 5.86446 13.5693 5.86446 13.5033C5.86446 13.4372 5.93053 13.3711 6.02964 13.3711C6.12875 13.3711 6.19482 13.4372 6.19482 13.5033ZM5.17069 13.3381C5.20373 13.272 5.30284 13.239 5.40195 13.272C5.50106 13.3051 5.53409 13.3711 5.53409 13.4372C5.50106 13.5033 5.40195 13.5363 5.33587 13.5033C5.23676 13.5033 5.17069 13.4042 5.17069 13.3381ZM6.65733 13.3051C6.72341 13.272 6.82252 13.3381 6.82252 13.4042C6.85555 13.4702 6.78948 13.5033 6.69037 13.5363C6.59126 13.5693 6.49215 13.5363 6.49215 13.4702C6.49215 13.3711 6.55822 13.3051 6.65733 13.3051ZM8.8047 0.619049C13.3968 0.619049 17.1299 4.12091 17.1299 8.67995C17.1299 12.347 14.8834 15.4855 11.5798 16.5757C11.1503 16.6748 10.9851 16.4105 10.9851 16.1792C10.9851 15.9149 11.0181 14.5274 11.0181 13.4372C11.0181 12.6443 10.7539 12.1488 10.4565 11.8845C12.3066 11.6863 14.2557 11.422 14.2557 8.25047C14.2557 7.32545 13.9254 6.89598 13.3968 6.30132C13.4628 6.07007 13.7602 5.21112 13.2977 4.05484C12.6039 3.82359 11.0181 4.94683 11.0181 4.94683C10.3574 4.74861 9.66365 4.68253 8.93685 4.68253C8.24308 4.68253 7.54932 4.74861 6.88859 4.94683C6.88859 4.94683 5.2698 3.85662 4.60907 4.05484C4.14656 5.21112 4.41085 6.07007 4.50996 6.30132C3.98138 6.89598 3.71709 7.32545 3.71709 8.25047C3.71709 11.422 5.60017 11.6863 7.45021 11.8845C7.18592 12.1157 6.9877 12.4791 6.92162 13.0077C6.42608 13.239 5.23676 13.6024 4.50996 12.314C4.04745 11.5211 3.22154 11.455 3.22154 11.455C2.42866 11.455 3.1885 11.9836 3.1885 11.9836C3.71709 12.2149 4.08049 13.1729 4.08049 13.1729C4.57604 14.6595 6.88859 14.164 6.88859 14.164C6.88859 14.8578 6.88859 15.981 6.88859 16.2123C6.88859 16.4105 6.75644 16.6748 6.32697 16.6087C3.02332 15.4855 0.743805 12.347 0.743805 8.67995C0.743805 4.12091 4.24567 0.619049 8.8047 0.619049ZM3.94834 12.0166C3.98138 11.9836 4.04745 12.0166 4.11352 12.0497C4.1796 12.1157 4.1796 12.2149 4.14656 12.2479C4.08049 12.2809 4.01442 12.2479 3.94834 12.2149C3.91531 12.1488 3.88227 12.0497 3.94834 12.0166ZM3.58494 11.7523C3.61798 11.7193 3.65101 11.7193 3.71709 11.7523C3.78316 11.7854 3.8162 11.8184 3.8162 11.8514C3.78316 11.9175 3.71709 11.9175 3.65101 11.8845C3.58494 11.8514 3.5519 11.8184 3.58494 11.7523ZM4.64211 12.9417C4.70818 12.8756 4.80729 12.9086 4.87336 12.9747C4.93944 13.0408 4.93944 13.1399 4.9064 13.1729C4.87336 13.239 4.77425 13.2059 4.70818 13.1399C4.60907 13.0738 4.60907 12.9747 4.64211 12.9417ZM4.27871 12.4461C4.34478 12.4131 4.41085 12.4461 4.47693 12.5122C4.50996 12.5783 4.50996 12.6774 4.47693 12.7104C4.41085 12.7434 4.34478 12.7104 4.27871 12.6443C4.21263 12.5783 4.21263 12.4791 4.27871 12.4461Z" fill="#34302D"/>
</svg>
