<svg width="16" height="16" viewBox="0 0 16 16" fill="none" xmlns="http://www.w3.org/2000/svg">
<path d="M3.64597 15.25H0.475627V5.05718H3.64597V15.25ZM2.04375 3.69359C1.05515 3.69359 0.237 2.84135 0.237 1.81866C0.237 0.830055 1.05515 0.0119019 2.04375 0.0119019C3.06644 0.0119019 3.8846 0.830055 3.8846 1.81866C3.8846 2.84135 3.06644 3.69359 2.04375 3.69359ZM12.3388 15.25V10.307C12.3388 9.11385 12.3048 7.6139 10.6684 7.6139C9.03214 7.6139 8.79351 8.87522 8.79351 10.2047V15.25H5.62317V5.05718H8.65716V6.45486H8.69124C9.13441 5.67079 10.1571 4.81855 11.6911 4.81855C14.8956 4.81855 15.5092 6.93211 15.5092 9.65929V15.25H12.3388Z" fill="#34302D"/>
</svg>
